<svg width="222" height="222" viewBox="0 0 222 222" fill="none" xmlns="http://www.w3.org/2000/svg">
<g clip-path="url(#clip0_381_10564)">
<path d="M100.141 52.7538C100.258 52.4009 100.729 52.048 100.964 51.9581C101.125 51.8967 104.408 51.5763 106.468 51.3799C107.036 51.3256 107.321 51.2985 107.541 51.3931C107.735 51.476 107.896 51.6222 107.997 51.8072C108.112 52.018 108.112 52.3043 108.112 52.877V78.561C108.112 83.056 108.115 86.6732 107.876 89.5953C107.634 92.5651 107.121 95.175 105.89 97.5902C103.936 101.425 100.818 104.544 96.9828 106.498C94.5676 107.728 91.9577 108.241 88.9879 108.484C86.0658 108.722 82.4486 108.719 77.9536 108.719H52.1681C51.6302 108.719 51.3612 108.719 51.1544 108.61C50.9755 108.515 50.826 108.357 50.7411 108.173C50.6429 107.961 50.6573 107.697 50.6862 107.171C50.7621 105.79 50.9097 103.762 51.1731 102.277C51.2792 101.68 51.6035 101.173 51.7935 100.983C51.9835 100.793 52.9699 100.541 53.3227 100.541C53.6756 100.541 73.2073 100.541 73.2073 100.541C82.5623 100.541 87.2398 100.541 90.813 98.7203C93.9561 97.1188 96.5114 94.5635 98.1129 91.4204C99.9335 87.8473 99.9335 83.1697 99.9335 73.8147C99.9335 73.8147 99.9335 54.636 99.9335 54.2831C99.9335 53.9302 100.023 53.1067 100.141 52.7538Z" fill="white"/>
<path d="M86.1729 64.6268C86.3922 55.1969 87.615 53.5348 94.1268 53.3527C94.6406 53.3383 94.8975 53.3311 95.1045 53.4315C95.2833 53.5183 95.437 53.6677 95.5287 53.844C95.6348 54.0481 95.6348 54.3117 95.6348 54.8389C95.6348 60.7335 95.6348 67.553 95.6348 75.1651C95.6348 91.4564 90.8456 96.2423 74.555 96.2423H54.2323C53.7044 96.2423 53.4404 96.2423 53.2365 96.1364C53.0601 96.0448 52.9112 95.892 52.8242 95.7134C52.7235 95.5068 52.7301 95.2496 52.7433 94.7353C52.9174 87.9285 54.6408 87.1818 66.4106 86.7418C85.7024 85.6943 85.2319 84.9773 86.1729 64.6268Z" fill="white"/>
</g>
<g clip-path="url(#clip1_381_10564)">
<path d="M121.535 52.7538C121.417 52.4009 120.947 52.048 120.712 51.9581C120.551 51.8967 117.268 51.5763 115.208 51.3799C114.639 51.3256 114.355 51.2985 114.134 51.3931C113.941 51.476 113.78 51.6222 113.679 51.8072C113.564 52.018 113.564 52.3043 113.564 52.877V78.561C113.564 83.056 113.561 86.6732 113.8 89.5953C114.042 92.5651 114.555 95.175 115.785 97.5902C117.74 101.425 120.858 104.544 124.693 106.498C127.108 107.728 129.718 108.241 132.688 108.484C135.61 108.722 139.227 108.719 143.722 108.719H169.508C170.046 108.719 170.315 108.719 170.521 108.61C170.7 108.515 170.85 108.357 170.935 108.173C171.033 107.961 171.018 107.697 170.99 107.171C170.914 105.79 170.766 103.762 170.503 102.277C170.397 101.68 170.072 101.173 169.882 100.983C169.692 100.793 168.706 100.541 168.353 100.541C168 100.541 148.469 100.541 148.469 100.541C139.113 100.541 134.436 100.541 130.863 98.7203C127.72 97.1188 125.164 94.5635 123.563 91.4204C121.742 87.8473 121.742 83.1697 121.742 73.8147C121.742 73.8147 121.742 54.636 121.742 54.2831C121.742 53.9302 121.653 53.1067 121.535 52.7538Z" fill="white"/>
<path d="M135.503 64.6268C135.284 55.1969 134.061 53.5348 127.549 53.3527C127.035 53.3383 126.778 53.3311 126.571 53.4315C126.392 53.5183 126.239 53.6677 126.147 53.844C126.041 54.0481 126.041 54.3117 126.041 54.8389C126.041 60.7335 126.041 67.553 126.041 75.1651C126.041 91.4564 130.83 96.2423 147.121 96.2423H167.444C167.971 96.2423 168.235 96.2423 168.439 96.1364C168.616 96.0448 168.765 95.892 168.852 95.7134C168.952 95.5068 168.946 95.2496 168.933 94.7353C168.758 87.9285 167.035 87.1818 155.265 86.7418C135.973 85.6943 136.444 84.9773 135.503 64.6268Z" fill="white"/>
</g>
<g clip-path="url(#clip2_381_10564)">
<path d="M121.535 170.137C121.417 170.49 120.947 170.843 120.712 170.932C120.551 170.994 117.268 171.314 115.208 171.511C114.639 171.565 114.355 171.592 114.134 171.498C113.941 171.415 113.78 171.268 113.679 171.083C113.564 170.873 113.564 170.586 113.564 170.014V144.33C113.564 139.835 113.561 136.217 113.8 133.295C114.042 130.326 114.555 127.716 115.785 125.3C117.74 121.465 120.858 118.347 124.693 116.393C127.108 115.162 129.718 114.65 132.688 114.407C135.61 114.168 139.227 114.171 143.722 114.171H169.508C170.046 114.171 170.315 114.171 170.521 114.281C170.7 114.376 170.85 114.534 170.935 114.718C171.033 114.93 171.018 115.193 170.99 115.72C170.914 117.101 170.766 119.128 170.503 120.613C170.397 121.211 170.072 121.717 169.882 121.907C169.692 122.097 168.706 122.35 168.353 122.35C168 122.35 148.469 122.35 148.469 122.35C139.113 122.35 134.436 122.35 130.863 124.17C127.72 125.772 125.164 128.327 123.563 131.47C121.742 135.043 121.742 139.721 121.742 149.076C121.742 149.076 121.742 168.255 121.742 168.608C121.742 168.96 121.653 169.784 121.535 170.137Z" fill="white"/>
<path d="M135.503 158.264C135.284 167.694 134.061 169.356 127.549 169.538C127.035 169.552 126.778 169.56 126.571 169.459C126.392 169.372 126.239 169.223 126.147 169.047C126.041 168.842 126.041 168.579 126.041 168.052C126.041 162.157 126.041 155.338 126.041 147.726C126.041 131.434 130.83 126.648 147.121 126.648H167.444C167.971 126.648 168.235 126.648 168.439 126.754C168.616 126.846 168.765 126.999 168.852 127.177C168.952 127.384 168.946 127.641 168.933 128.155C168.758 134.962 167.035 135.709 155.265 136.149C135.973 137.196 136.444 137.913 135.503 158.264Z" fill="white"/>
</g>
<g clip-path="url(#clip3_381_10564)">
<path d="M100.141 170.137C100.258 170.49 100.729 170.843 100.964 170.932C101.125 170.994 104.408 171.314 106.468 171.511C107.036 171.565 107.321 171.592 107.541 171.498C107.735 171.415 107.896 171.268 107.997 171.083C108.112 170.873 108.112 170.586 108.112 170.014V144.33C108.112 139.835 108.115 136.217 107.876 133.295C107.634 130.326 107.121 127.716 105.89 125.3C103.936 121.465 100.818 118.347 96.9828 116.393C94.5676 115.162 91.9577 114.65 88.9879 114.407C86.0658 114.168 82.4486 114.171 77.9536 114.171H52.1681C51.6302 114.171 51.3612 114.171 51.1544 114.281C50.9755 114.376 50.826 114.534 50.7411 114.718C50.6429 114.93 50.6573 115.193 50.6862 115.72C50.7621 117.101 50.9097 119.128 51.1731 120.613C51.2792 121.211 51.6035 121.717 51.7935 121.907C51.9835 122.097 52.9699 122.35 53.3227 122.35C53.6756 122.35 73.2073 122.35 73.2073 122.35C82.5623 122.35 87.2398 122.35 90.813 124.17C93.9561 125.772 96.5114 128.327 98.1129 131.47C99.9335 135.043 99.9335 139.721 99.9335 149.076C99.9335 149.076 99.9335 168.255 99.9335 168.608C99.9335 168.96 100.023 169.784 100.141 170.137Z" fill="white"/>
<path d="M86.1729 158.264C86.3922 167.694 87.615 169.356 94.1268 169.538C94.6406 169.552 94.8975 169.56 95.1045 169.459C95.2833 169.372 95.437 169.223 95.5287 169.047C95.6348 168.842 95.6348 168.579 95.6348 168.052C95.6348 162.157 95.6348 155.338 95.6348 147.726C95.6348 131.434 90.8456 126.648 74.555 126.648H54.2323C53.7044 126.648 53.4404 126.648 53.2365 126.754C53.0601 126.846 52.9112 126.999 52.8242 127.177C52.7235 127.384 52.7301 127.641 52.7433 128.155C52.9174 134.962 54.6408 135.709 66.4106 136.149C85.7024 137.196 85.2319 137.913 86.1729 158.264Z" fill="white"/>
</g>
<path d="M27.6988 127.316L26 127.559L25.6312 124.982C25.5259 124.246 25.2904 123.644 24.9249 123.176C24.5486 122.7 24.082 122.368 23.5251 122.178C22.9668 121.978 22.3526 121.926 21.6825 122.022C21.0218 122.117 20.4603 122.332 19.9979 122.668C19.5355 123.004 19.1998 123.451 18.991 124.011C18.7807 124.561 18.729 125.209 18.8357 125.955L19.1983 128.489L17.4995 128.732L17.1368 126.198C16.9734 125.056 17.0385 124.03 17.3322 123.122C17.6165 122.214 18.1078 121.474 18.8062 120.902C19.4937 120.322 20.3566 119.958 21.3948 119.81C22.433 119.661 23.3728 119.767 24.2143 120.129C25.0463 120.491 25.7355 121.067 26.2817 121.855C26.8172 122.636 27.166 123.592 27.3281 124.725L27.6988 127.316ZM27.8893 128.647L17.696 130.105L17.384 127.925L27.5773 126.466L27.8893 128.647ZM26.2479 116.534L15.9518 116.682L15.9199 114.48L26.216 114.331L26.2479 116.534ZM26.233 115.504L24.5456 115.528L24.4497 108.893L26.1371 108.869L26.233 115.504ZM21.7999 115.568L20.1411 115.592L20.0525 109.457L21.7113 109.433L21.7999 115.568ZM17.6243 115.628L15.9369 115.653L15.8435 109.189L17.5309 109.165L17.6243 115.628ZM26.1844 106.163L15.9458 105.066L16.4668 100.203C16.548 99.4447 16.7503 98.8095 17.0736 98.2976C17.398 97.7762 17.8129 97.3939 18.3184 97.1508C18.8249 96.8982 19.3957 96.8059 20.0309 96.874C20.6661 96.942 21.2091 97.1536 21.6601 97.5088C22.1111 97.8639 22.4446 98.3311 22.6607 98.9104C22.8682 99.4792 22.9319 100.138 22.8517 100.887L22.5166 104.016L20.8386 103.836L21.1615 100.821C21.2153 100.319 21.1195 99.9152 20.874 99.6108C20.6201 99.296 20.2656 99.1142 19.8105 99.0654C19.3555 99.0167 18.9753 99.1198 18.6699 99.3747C18.3655 99.6202 18.1864 99.9942 18.1326 100.497L17.8584 103.056L26.419 103.973L26.1844 106.163ZM27.2357 96.7503L18.0601 90.7959L18.4933 88.9584L27.7378 94.6205L27.2357 96.7503ZM28.9686 89.4005L18.1717 90.3226L18.6246 88.4016L29.4937 87.1734L28.9686 89.4005ZM23.7984 93.9415L25.1243 88.3178L26.7947 88.7117L25.4688 94.3353L23.7984 93.9415ZM30.0945 85.015L20.4862 81.312L22.1423 77.015C22.4097 76.321 22.763 75.7624 23.202 75.3389C23.6322 74.9121 24.1157 74.6386 24.6524 74.5185C25.1892 74.3984 25.7422 74.448 26.3116 74.6675C26.8721 74.8835 27.311 75.2161 27.6283 75.6654C27.9367 76.1112 28.1116 76.6384 28.153 77.247C28.1854 77.8522 28.0679 78.5017 27.8005 79.1956L26.7718 81.8646L25.2639 81.2834L26.2719 78.6678C26.4605 78.1785 26.4933 77.762 26.3703 77.4183C26.2419 77.0623 25.973 76.8054 25.5638 76.6477C25.1457 76.4865 24.7801 76.4938 24.4672 76.6695C24.1453 76.8418 23.8884 77.177 23.6964 77.6752L22.8529 79.8638L30.8865 82.9599L30.0945 85.015ZM32.1826 79.597L25.7052 81.5302L26.5436 79.355L33.2523 76.8213L32.1826 79.597ZM35.4339 72.4511L27.8514 68.373L26.2595 71.3329L24.7732 70.5335L29.0003 62.674L30.4866 63.4733L28.8946 66.4333L36.4771 70.5114L35.4339 72.4511ZM39.3319 65.4272L31.0866 59.259L33.1426 56.5106L42.8036 60.1656L42.0583 61.1619L35.824 52.9262L37.8886 50.1663L46.134 56.3344L44.8318 58.075L37.0789 52.2753L37.3017 51.9776L43.384 60.0104L42.0219 61.8313L32.6843 58.2931L32.8985 58.0068L40.5827 63.7552L39.3319 65.4272ZM47.9106 54.1309L40.6368 46.8423L42.1958 45.2865L49.4696 52.5752L47.9106 54.1309ZM48.6395 53.4036L47.4474 52.209L52.1445 47.5215L53.3366 48.716L48.6395 53.4036ZM45.5077 50.2654L44.3358 49.0911L48.6786 44.7572L49.8505 45.9315L45.5077 50.2654ZM42.5578 47.3095L41.3657 46.1149L45.9413 41.5486L47.1334 42.7432L42.5578 47.3095ZM55.3146 46.8716L49.0358 38.7102L51.2916 36.9748L60.4651 41.3934L60.0143 41.9568L54.3634 34.6115L56.0637 33.3034L62.3425 41.4648L60.0868 43.2002L50.9132 38.7816L51.364 38.2182L57.0149 45.5635L55.3146 46.8716ZM67.2431 38.3201L62.9539 30.855L60.0398 32.5294L59.1991 31.0661L66.9369 26.6202L67.7777 28.0834L64.8636 29.7578L69.1528 37.2228L67.2431 38.3201ZM82.8096 31.2085C82.0884 31.4569 81.3794 31.5649 80.6826 31.5327C79.9947 31.4973 79.3494 31.3363 78.7465 31.0498C78.1496 30.7512 77.6193 30.3389 77.1558 29.8128C76.6982 29.2746 76.3405 28.6314 76.0829 27.8832C75.7414 26.8915 75.6552 25.9532 75.8243 25.068C75.9903 24.1739 76.376 23.3906 76.9814 22.7183C77.5958 22.0428 78.3853 21.539 79.3499 21.2068C80.3325 20.8684 81.2694 20.7777 82.1604 20.9347C83.0514 21.0917 83.8377 21.4713 84.519 22.0736C85.2094 22.6728 85.7254 23.4683 86.0669 24.4599C86.3215 25.1991 86.4297 25.9232 86.3915 26.6321C86.3592 27.329 86.1953 27.9804 85.8998 28.5863C85.6102 29.1802 85.2008 29.7044 84.6716 30.1589C84.1514 30.6103 83.5308 30.9602 82.8096 31.2085ZM82.2279 29.5635C82.7958 29.3679 83.2465 29.0514 83.5798 28.6139C83.9132 28.1764 84.1147 27.6633 84.1842 27.0746C84.2597 26.4739 84.181 25.8354 83.9481 25.1593C83.7184 24.4922 83.3964 23.9527 82.9823 23.5407C82.5681 23.1287 82.0981 22.862 81.5723 22.7406C81.0464 22.6192 80.495 22.6578 79.9181 22.8565C79.3501 23.0521 78.8964 23.3596 78.5568 23.7791C78.2172 24.1985 78.0111 24.6981 77.9385 25.2777C77.8718 25.8452 77.9548 26.4671 78.1877 27.1432C78.4236 27.8283 78.7518 28.3859 79.1721 28.8159C79.5894 29.2369 80.064 29.5171 80.5961 29.6566C81.1251 29.787 81.669 29.756 82.2279 29.5635ZM90.1981 28.6156L88.2009 18.514L90.3615 18.0868L92.3588 28.1884L90.1981 28.6156ZM90.4344 24.5015L90.107 22.846L95.9014 21.7003L96.2288 23.3559L90.4344 24.5015ZM89.5384 19.9698L89.211 18.3143L95.3281 17.1048L95.6555 18.7604L89.5384 19.9698ZM108.244 26.3644C106.91 26.4001 105.835 26.1331 105.018 25.5636C104.202 24.9845 103.712 24.1535 103.55 23.0706L105.666 23.014C105.747 23.5651 106.026 23.9963 106.501 24.3079C106.977 24.61 107.577 24.7513 108.301 24.732C108.892 24.7162 109.342 24.5992 109.651 24.3812C109.969 24.1628 110.124 23.8773 110.114 23.5247C110.105 23.1911 110.003 22.9268 109.807 22.7317C109.611 22.5271 109.277 22.3691 108.807 22.2577L106.877 21.7799C105.888 21.5297 105.159 21.1725 104.688 20.7081C104.227 20.234 103.987 19.6348 103.968 18.9104C103.951 18.2909 104.094 17.753 104.397 17.2966C104.709 16.8305 105.152 16.4705 105.727 16.2167C106.302 15.9534 106.98 15.8113 107.762 15.7904C108.963 15.7583 109.928 16.0186 110.658 16.5714C111.388 17.1146 111.813 17.852 111.933 18.7835L109.817 18.84C109.709 18.3374 109.465 17.9719 109.087 17.7436C108.719 17.515 108.248 17.4083 107.676 17.4236C107.181 17.4369 106.788 17.5427 106.498 17.7412C106.207 17.9398 106.066 18.201 106.075 18.5251C106.082 18.7729 106.169 18.9995 106.336 19.2048C106.504 19.4007 106.847 19.5632 107.365 19.6924L109.295 20.1702C110.313 20.4196 111.047 20.7815 111.499 21.2559C111.959 21.7204 112.199 22.3197 112.219 23.0536C112.247 24.0829 111.91 24.8835 111.21 25.4554C110.51 26.0273 109.522 26.3303 108.244 26.3644ZM114.754 26.1517L115.775 15.9053L120.642 16.3904C121.401 16.4661 122.038 16.6637 122.552 16.9832C123.076 17.3037 123.461 17.7158 123.708 18.2195C123.964 18.7241 124.061 19.2943 123.997 19.9299C123.934 20.5656 123.726 21.1102 123.375 21.5638C123.023 22.0174 122.558 22.3543 121.98 22.5746C121.413 22.7864 120.755 22.8549 120.005 22.7802L116.874 22.4681L117.042 20.7889L120.059 21.0896C120.561 21.1397 120.964 21.0409 121.267 20.7932C121.58 20.5369 121.759 20.1811 121.804 19.7257C121.85 19.2703 121.744 18.8909 121.487 18.5874C121.239 18.2848 120.864 18.1085 120.361 18.0584L117.799 17.803L116.945 26.3702L114.754 26.1517ZM125.714 27.3335L128.001 17.2936L130.149 17.7828L127.862 27.8227L125.714 27.3335ZM126.718 27.5622L127.093 25.9168L133.563 27.3907L133.189 29.0362L126.718 27.5622ZM127.703 23.2395L128.072 21.6219L134.054 22.9847L133.685 24.6022L127.703 23.2395ZM128.631 19.1677L129.005 17.5223L135.308 18.9581L134.934 20.6035L128.631 19.1677ZM139.946 31.4694C139.249 31.211 138.65 30.8518 138.149 30.3918C137.652 29.9228 137.267 29.3836 136.994 28.7743C136.731 28.1682 136.591 27.5165 136.575 26.8191C136.562 26.1128 136.69 25.3976 136.958 24.6734C137.227 23.9492 137.588 23.3307 138.042 22.8178C138.506 22.3083 139.033 21.914 139.625 21.6349C140.228 21.3502 140.868 21.201 141.545 21.1871C142.224 21.1644 142.917 21.2839 143.623 21.5456C144.419 21.8404 145.076 22.2619 145.595 22.81C146.126 23.3525 146.488 23.9799 146.682 24.6923C146.888 25.399 146.896 26.1444 146.707 26.9285L144.696 26.1831C144.835 25.4516 144.745 24.8287 144.427 24.3144C144.113 23.7912 143.647 23.4152 143.03 23.1867C142.485 22.9846 141.954 22.9353 141.438 23.0389C140.931 23.1458 140.47 23.402 140.055 23.8076C139.644 24.2042 139.31 24.7468 139.055 25.4352C138.797 26.1325 138.69 26.7791 138.733 27.3748C138.789 27.9649 138.976 28.4764 139.293 28.9092C139.614 29.3332 140.047 29.6461 140.592 29.8482C141.174 30.0636 141.752 30.0797 142.328 29.8967C142.905 29.7136 143.387 29.3028 143.777 28.6641L145.815 29.4194C145.42 30.1273 144.913 30.6867 144.293 31.0975C143.677 31.4995 142.995 31.7348 142.247 31.8036C141.5 31.8723 140.733 31.7609 139.946 31.4694ZM146.781 33.9261L151.309 24.6777L153.287 25.646L148.759 34.8945L146.781 33.9261ZM151.295 36.2073L156.635 27.4031L158.518 28.5453L153.178 37.3495L151.295 36.2073ZM152.176 36.7413L153.051 35.2984L158.725 38.7398L157.849 40.1827L152.176 36.7413ZM154.475 32.9506L155.335 31.5322L160.581 34.714L159.721 36.1324L154.475 32.9506ZM156.64 29.38L157.516 27.9371L163.043 31.2895L162.168 32.7324L156.64 29.38ZM163.017 44.1688C161.969 43.3433 161.312 42.4506 161.049 41.4907C160.791 40.5234 160.945 39.5714 161.513 38.6347L163.176 39.9438C162.886 40.4196 162.825 40.9294 162.992 41.4731C163.164 42.0092 163.535 42.5014 164.105 42.9496C164.569 43.3152 164.99 43.5129 165.367 43.5426C165.751 43.5783 166.053 43.4575 166.271 43.1803C166.477 42.9181 166.567 42.6494 166.541 42.3741C166.521 42.0913 166.366 41.7568 166.075 41.3704L164.897 39.7693C164.296 38.9447 163.963 38.2035 163.899 37.5459C163.847 36.8866 164.046 36.2723 164.494 35.7029C164.877 35.2159 165.331 34.8937 165.855 34.7361C166.393 34.577 166.964 34.5836 167.569 34.756C168.179 34.921 168.791 35.2452 169.406 35.7287C170.35 36.4717 170.926 37.2891 171.134 38.1809C171.348 39.0652 171.203 39.904 170.7 40.6972L169.037 39.3881C169.275 38.932 169.321 38.4953 169.176 38.0781C169.039 37.6667 168.746 37.2841 168.296 36.9303C167.907 36.6236 167.537 36.4538 167.186 36.4209C166.836 36.3879 166.561 36.4988 166.36 36.7535C166.207 36.9483 166.129 37.1783 166.127 37.4433C166.13 37.7009 166.29 38.0451 166.606 38.4759L167.785 40.077C168.408 40.9193 168.742 41.6672 168.786 42.3205C168.843 42.9723 168.645 43.5866 168.19 44.1635C167.554 44.9727 166.783 45.3734 165.879 45.3657C164.975 45.3579 164.021 44.959 163.017 44.1688ZM173.882 54.2797C172.993 53.2833 172.503 52.2896 172.412 51.2984C172.327 50.3008 172.646 49.3906 173.369 48.5677L174.777 50.1477C174.409 50.5655 174.259 51.0566 174.328 51.6211C174.404 52.1792 174.683 52.7287 175.165 53.2696C175.559 53.7108 175.938 53.9791 176.304 54.0744C176.676 54.1768 176.994 54.1106 177.258 53.8759C177.507 53.6538 177.642 53.405 177.665 53.1294C177.695 52.8475 177.6 52.491 177.382 52.0597L176.502 50.2771C176.055 49.36 175.857 48.5721 175.908 47.9133C175.973 47.2552 176.276 46.6851 176.817 46.2029C177.279 45.7905 177.783 45.5526 178.326 45.4893C178.884 45.4268 179.445 45.5333 180.01 45.8088C180.582 46.078 181.128 46.5044 181.648 47.088C182.448 47.9847 182.872 48.8903 182.921 49.8048C182.977 50.7129 182.687 51.5134 182.053 52.2063L180.645 50.6263C180.959 50.2189 181.081 49.7971 181.011 49.3609C180.948 48.9319 180.726 48.5038 180.346 48.0768C180.016 47.7067 179.681 47.4748 179.342 47.381C179.003 47.2873 178.713 47.3483 178.471 47.564C178.286 47.729 178.169 47.9417 178.12 48.2023C178.078 48.4565 178.176 48.8234 178.411 49.3029L179.292 51.0855C179.758 52.0239 179.955 52.8186 179.884 53.4695C179.826 54.1213 179.524 54.6914 178.976 55.1799C178.207 55.8651 177.378 56.1248 176.49 55.959C175.601 55.7932 174.732 55.2334 173.882 54.2797ZM178.248 59.1126L186.698 53.2286L187.957 55.036L179.506 60.92L178.248 59.1126ZM178.836 59.9576L180.221 58.9933L184.013 64.4392L182.628 65.4035L178.836 59.9576ZM182.474 57.4242L183.836 56.4763L187.342 61.5113L185.98 62.4593L182.474 57.4242ZM185.901 55.038L187.286 54.0736L190.98 59.3786L189.595 60.343L185.901 55.038ZM184.017 67.5437L193.144 62.7766L195.276 66.8585C195.62 67.5176 195.806 68.1519 195.834 68.7613C195.87 69.3662 195.756 69.9098 195.492 70.3921C195.227 70.8744 194.825 71.2568 194.284 71.5393C193.751 71.8174 193.212 71.9272 192.665 71.8686C192.126 71.8056 191.615 71.5886 191.131 71.2176C190.655 70.8422 190.245 70.3249 189.901 69.6658L188.577 67.1304L190.009 66.3823L191.307 68.8669C191.55 69.3317 191.841 69.6315 192.18 69.7662C192.532 69.905 192.903 69.8728 193.291 69.6698C193.689 69.4623 193.925 69.1831 193.999 68.8321C194.083 68.4766 194.001 68.0623 193.753 67.589L192.668 65.5101L185.036 69.4959L184.017 67.5437ZM186.705 72.6904L189.532 66.5506L190.612 68.6169L188.082 75.3272L186.705 72.6904ZM189.959 80.0562L198.362 73.0539L199.148 75.2029L192.057 80.7964L191.964 80.5412L200.995 80.2531L201.742 82.2947L190.804 82.3664L189.959 80.0562ZM192.855 88.1827L202.832 85.6346L203.377 87.7685L193.4 90.3167L192.855 88.1827ZM194.612 97.9444C194.502 97.2088 194.529 96.5109 194.691 95.8506C194.862 95.1888 195.149 94.5918 195.552 94.0595C195.956 93.5367 196.46 93.1002 197.063 92.7501C197.676 92.3986 198.364 92.1659 199.128 92.0522C199.892 91.9385 200.608 91.9571 201.276 92.1083C201.946 92.2688 202.546 92.541 203.075 92.9249C203.616 93.3167 204.055 93.8056 204.392 94.3915C204.74 94.976 204.969 95.6408 205.08 96.3858C205.205 97.2251 205.152 98.0041 204.922 98.7228C204.702 99.4495 204.327 100.069 203.796 100.582C203.276 101.103 202.627 101.47 201.849 101.682L201.533 99.56C202.241 99.3293 202.743 98.9508 203.041 98.4245C203.348 97.8968 203.453 97.3076 203.356 96.6569C203.27 96.0816 203.058 95.5928 202.718 95.1902C202.38 94.7972 201.934 94.5166 201.379 94.3487C200.833 94.1793 200.197 94.1487 199.471 94.2568C198.735 94.3663 198.117 94.5837 197.616 94.9089C197.126 95.2422 196.767 95.6522 196.541 96.139C196.324 96.6243 196.258 97.1546 196.344 97.7299C196.435 98.3429 196.7 98.8577 197.138 99.2745C197.576 99.6913 198.169 99.9163 198.916 99.9496L199.236 102.1C198.426 102.095 197.691 101.92 197.032 101.575C196.383 101.228 195.848 100.744 195.428 100.122C195.008 99.5001 194.736 98.7743 194.612 97.9444ZM195.732 105.118L206.027 104.917L206.07 107.119L195.775 107.32L195.732 105.118ZM195.752 106.148L197.44 106.115L197.569 112.75L195.882 112.783L195.752 106.148ZM200.185 106.061L201.844 106.029L201.963 112.163L200.305 112.196L200.185 106.061ZM204.36 105.98L206.048 105.947L206.174 112.41L204.486 112.443L204.36 105.98ZM195.281 119.282C195.417 117.954 195.82 116.922 196.489 116.185C197.168 115.449 198.055 115.071 199.15 115.048L198.935 117.154C198.378 117.164 197.914 117.385 197.544 117.817C197.184 118.25 196.966 118.826 196.893 119.547C196.833 120.135 196.891 120.596 197.067 120.931C197.243 121.275 197.506 121.465 197.857 121.5C198.189 121.534 198.465 121.467 198.683 121.297C198.911 121.129 199.111 120.819 199.282 120.367L200.003 118.514C200.378 117.565 200.826 116.888 201.347 116.481C201.876 116.085 202.501 115.923 203.222 115.997C203.839 116.06 204.354 116.271 204.768 116.63C205.19 116.999 205.49 117.485 205.668 118.087C205.855 118.691 205.909 119.382 205.83 120.16C205.707 121.355 205.325 122.279 204.683 122.932C204.051 123.586 203.265 123.913 202.326 123.913L202.541 121.807C203.054 121.764 203.447 121.569 203.722 121.224C203.996 120.888 204.163 120.435 204.221 119.866C204.271 119.373 204.217 118.969 204.057 118.656C203.897 118.342 203.656 118.169 203.334 118.136C203.087 118.111 202.851 118.168 202.626 118.308C202.411 118.449 202.205 118.768 202.011 119.266L201.289 121.118C200.911 122.096 200.458 122.778 199.93 123.165C199.41 123.562 198.785 123.723 198.054 123.648C197.03 123.543 196.279 123.107 195.802 122.34C195.325 121.572 195.151 120.553 195.281 119.282Z" fill="white"/>
<path d="M38.801 173.295C38.3127 172.734 37.9591 172.131 37.7401 171.488C37.5283 170.838 37.4488 170.18 37.5016 169.515C37.5607 168.857 37.7503 168.218 38.0703 167.598C38.3975 166.972 38.8523 166.405 39.4348 165.898C40.0173 165.391 40.6309 165.021 41.2755 164.789C41.9263 164.563 42.5782 164.47 43.2311 164.509C43.8974 164.548 44.5306 164.724 45.1307 165.035C45.7381 165.341 46.289 165.778 46.7835 166.346C47.3407 166.986 47.7156 167.671 47.9084 168.401C48.1146 169.131 48.132 169.856 47.9606 170.574C47.8027 171.292 47.453 171.951 46.9115 172.549L45.503 170.93C45.9754 170.355 46.1953 169.765 46.1628 169.162C46.1375 168.552 45.9088 167.999 45.4769 167.502C45.095 167.064 44.6527 166.766 44.1499 166.61C43.6534 166.46 43.126 166.464 42.5677 166.622C42.0166 166.773 41.4642 167.089 40.9105 167.571C40.3495 168.06 39.9455 168.576 39.6983 169.119C39.4646 169.664 39.3834 170.203 39.4547 170.735C39.5332 171.26 39.7633 171.743 40.1452 172.181C40.5521 172.649 41.0523 172.94 41.6457 173.056C42.2392 173.171 42.8598 173.042 43.5074 172.668L44.9347 174.307C44.2492 174.74 43.536 174.988 42.7949 175.051C42.0611 175.108 41.3497 174.988 40.6607 174.691C39.9718 174.393 39.3519 173.927 38.801 173.295ZM43.1106 177.965L52.7512 172.797L54.1521 174.063L44.7344 179.432L43.1106 177.965ZM48.7142 183.027L53.112 173.123L54.5766 174.446L50.4122 184.561L48.7142 183.027ZM47.2287 176.308L51.5162 180.181L50.3658 181.455L46.0783 177.582L47.2287 176.308ZM52.3078 186.162L58.2848 177.777L60.0783 179.056L54.1012 187.441L52.3078 186.162ZM53.1463 186.76L54.1259 185.386L59.1102 188.939L58.1306 190.313L53.1463 186.76ZM60.3679 191.84L65.6768 183.017L67.5639 184.152L62.2551 192.975L60.3679 191.84ZM64.7306 194.4L69.3447 185.195L71.3137 186.182L66.6995 195.387L64.7306 194.4ZM67.4391 191.295L68.1953 189.786L73.4757 192.433L72.7195 193.941L67.4391 191.295ZM69.5091 187.165L70.2653 185.656L75.8397 188.451L75.0835 189.959L69.5091 187.165ZM78.0416 200.47C77.3238 200.212 76.7034 199.852 76.1803 199.391C75.6663 198.932 75.264 198.403 74.9734 197.802C74.695 197.195 74.5399 196.542 74.508 195.841C74.4883 195.135 74.6123 194.41 74.88 193.665C75.2347 192.678 75.7552 191.892 76.4414 191.308C77.1308 190.715 77.922 190.346 78.8151 190.201C79.7171 190.059 80.6482 190.161 81.6082 190.506C82.5862 190.858 83.3733 191.374 83.9697 192.054C84.566 192.734 84.9412 193.523 85.0952 194.419C85.2582 195.319 85.1622 196.262 84.8075 197.249C84.543 197.984 84.1739 198.617 83.7001 199.145C83.2385 199.669 82.7028 200.074 82.0929 200.361C81.4952 200.643 80.8478 200.795 80.1506 200.818C79.4624 200.844 78.7593 200.728 78.0416 200.47ZM78.6183 198.823C79.1836 199.026 79.7332 199.062 80.267 198.93C80.8009 198.797 81.2793 198.524 81.7022 198.108C82.1372 197.687 82.4757 197.14 82.7176 196.467C82.9563 195.803 83.0432 195.181 82.9783 194.6C82.9135 194.02 82.7141 193.517 82.3802 193.093C82.0463 192.67 81.5922 192.354 81.018 192.148C80.4527 191.945 79.9064 191.9 79.3789 192.015C78.8515 192.129 78.378 192.389 77.9583 192.796C77.5509 193.196 77.2262 193.733 76.9843 194.406C76.7392 195.088 76.6458 195.728 76.7042 196.327C76.7659 196.916 76.9604 197.432 77.2879 197.874C77.6186 198.307 78.0621 198.623 78.6183 198.823ZM85.4361 202.889L87.6805 192.839L92.1749 193.843C92.9007 194.005 93.5054 194.272 93.989 194.644C94.4746 195.006 94.8165 195.444 95.0145 195.957C95.2125 196.47 95.245 197.025 95.112 197.62C94.9811 198.206 94.7169 198.69 94.3194 199.07C93.9239 199.441 93.4283 199.691 92.8325 199.822C92.2387 199.943 91.579 199.923 90.8532 199.761L88.0616 199.138L88.4139 197.56L91.1496 198.171C91.6614 198.286 92.0782 198.257 92.4 198.084C92.7332 197.905 92.9475 197.601 93.0431 197.173C93.1408 196.735 93.0797 196.375 92.8597 196.091C92.6418 195.799 92.2723 195.594 91.7512 195.478L89.4621 194.966L87.5856 203.369L85.4361 202.889ZM91.1029 204.154L88.235 198.033L90.5101 198.541L94.0062 204.803L91.1029 204.154ZM96.2179 205.21L97.2524 194.965L100.084 195.251L103.724 204.76L103.009 204.86L103.94 195.64L106.075 195.855L105.04 206.1L102.208 205.815L98.5689 196.305L99.2833 196.205L98.3523 205.425L96.2179 205.21ZM107.878 206.322L107.988 196.026L110.19 196.05L110.08 206.346L107.878 206.322ZM112.565 206.343L115.476 195.8L117.358 195.659L114.747 206.18L112.565 206.343ZM120.095 205.78L115.961 195.763L117.929 195.616L122.377 205.609L120.095 205.78ZM114.206 202.219L119.968 201.788L120.096 203.499L114.334 203.931L114.206 202.219ZM130.239 204.319L129.824 202.653L132.35 202.024C133.071 201.845 133.646 201.549 134.074 201.138C134.509 200.715 134.793 200.217 134.926 199.644C135.067 199.068 135.056 198.452 134.892 197.795C134.731 197.147 134.46 196.611 134.079 196.185C133.698 195.759 133.218 195.471 132.64 195.32C132.071 195.167 131.422 195.181 130.691 195.363L128.207 195.982L127.792 194.316L130.276 193.698C131.395 193.419 132.422 193.379 133.356 193.579C134.288 193.77 135.074 194.183 135.714 194.82C136.361 195.445 136.811 196.266 137.064 197.284C137.318 198.301 137.308 199.247 137.034 200.121C136.758 200.985 136.256 201.73 135.527 202.353C134.805 202.965 133.888 203.41 132.778 203.686L130.239 204.319ZM128.934 204.644L126.446 194.652L128.583 194.119L131.071 204.111L128.934 204.644ZM140.782 201.624L137.372 191.908L139.45 191.179L142.86 200.895L140.782 201.624ZM148.555 198.519L140.941 190.666L143.025 189.72L149.135 196.371L148.888 196.483L147.922 187.499L149.902 186.601L150.795 197.503L148.555 198.519ZM156.389 194.896L151.325 185.93L153.242 184.847L158.307 193.812L156.389 194.896ZM164.33 190.07C163.228 190.824 162.18 191.183 161.185 191.147C160.185 191.104 159.323 190.671 158.599 189.85L160.346 188.654C160.713 189.073 161.181 189.284 161.75 189.288C162.313 189.284 162.893 189.077 163.491 188.668C163.979 188.334 164.294 187.992 164.435 187.641C164.584 187.285 164.559 186.961 164.36 186.67C164.171 186.395 163.942 186.228 163.672 186.171C163.396 186.105 163.03 186.153 162.575 186.315L160.694 186.96C159.727 187.287 158.921 187.382 158.274 187.247C157.629 187.099 157.103 186.726 156.693 186.128C156.343 185.616 156.172 185.087 156.178 184.539C156.188 183.979 156.365 183.436 156.71 182.911C157.05 182.378 157.543 181.89 158.188 181.449C159.18 180.77 160.132 180.465 161.045 180.534C161.953 180.594 162.71 180.983 163.316 181.7L161.569 182.896C161.205 182.532 160.803 182.357 160.361 182.371C159.927 182.379 159.475 182.544 159.002 182.867C158.593 183.147 158.321 183.449 158.184 183.773C158.048 184.098 158.071 184.394 158.255 184.661C158.395 184.866 158.591 185.009 158.843 185.09C159.09 185.164 159.466 185.115 159.972 184.942L161.852 184.296C162.842 183.954 163.656 183.859 164.292 184.013C164.931 184.154 165.458 184.527 165.873 185.133C166.454 185.982 166.606 186.837 166.328 187.698C166.05 188.558 165.384 189.349 164.33 190.07ZM169.603 186.235L163.11 178.243L164.82 176.854L171.312 184.846L169.603 186.235ZM177.156 179.609C176.611 180.142 176.016 180.543 175.372 180.812C174.736 181.075 174.084 181.206 173.416 181.205C172.749 181.19 172.093 181.045 171.449 180.768C170.805 180.477 170.206 180.049 169.653 179.483C168.92 178.733 168.441 177.922 168.215 177.049C167.982 176.17 167.995 175.297 168.255 174.43C168.521 173.557 169.019 172.764 169.748 172.051C170.492 171.324 171.299 170.841 172.172 170.602C173.044 170.362 173.917 170.369 174.791 170.622C175.672 170.868 176.478 171.366 177.211 172.116C177.758 172.675 178.166 173.283 178.434 173.94C178.704 174.584 178.834 175.242 178.826 175.917C178.819 176.577 178.673 177.226 178.39 177.864C178.113 178.494 177.701 179.076 177.156 179.609ZM175.926 178.371C176.356 177.952 176.628 177.473 176.742 176.934C176.856 176.396 176.818 175.846 176.629 175.285C176.44 174.709 176.096 174.166 175.596 173.655C175.103 173.15 174.581 172.8 174.03 172.605C173.48 172.41 172.941 172.37 172.413 172.486C171.886 172.601 171.404 172.872 170.968 173.298C170.538 173.718 170.26 174.19 170.133 174.715C170.005 175.239 170.033 175.779 170.215 176.334C170.398 176.875 170.739 177.402 171.239 177.913C171.745 178.431 172.281 178.795 172.845 179.004C173.402 179.206 173.951 179.256 174.491 179.154C175.025 179.045 175.503 178.785 175.926 178.371ZM182.597 173.969L174.554 167.539L176.331 165.316L186.294 167.422L185.99 168.076L178.752 162.289L180.091 160.614L188.134 167.044L186.357 169.267L176.395 167.161L176.698 166.507L183.936 172.294L182.597 173.969Z" fill="white"/>
<circle cx="111.161" cy="111.163" r="71.3455" stroke="white" stroke-width="2.27526"/>
<circle cx="111" cy="111" r="78.0088" stroke="white" stroke-width="2.27526"/>
<circle cx="111" cy="110.998" r="101.411" stroke="white" stroke-width="2.27526"/>
<circle cx="111.002" cy="111" r="109.862" stroke="white" stroke-width="2.27526"/>
<circle cx="111.002" cy="111" r="107.425" stroke="white" stroke-width="0.650073"/>
<circle cx="111.001" cy="110.999" r="74.5959" stroke="white" stroke-width="0.650073"/>
<circle cx="31.0416" cy="145.778" r="1.7877" fill="white"/>
<circle cx="189.983" cy="145.778" r="1.7877" fill="white"/>
<defs>
<clipPath id="clip0_381_10564">
<rect width="60.2282" height="60.2282" fill="white" transform="translate(50.6094 51.2168)"/>
</clipPath>
<clipPath id="clip1_381_10564">
<rect width="60.2282" height="60.2282" fill="white" transform="matrix(-1 0 0 1 171.066 51.2168)"/>
</clipPath>
<clipPath id="clip2_381_10564">
<rect width="60.2282" height="60.2282" fill="white" transform="matrix(-1 0 0 -1 171.066 171.674)"/>
</clipPath>
<clipPath id="clip3_381_10564">
<rect width="60.2282" height="60.2282" fill="white" transform="matrix(1 0 0 -1 50.6094 171.674)"/>
</clipPath>
</defs>
</svg>
