<svg width="121" height="121" viewBox="0 0 121 121" fill="none" xmlns="http://www.w3.org/2000/svg">
<path d="M49.5314 1.53704C49.649 1.18414 50.1195 0.831244 50.3548 0.741337C50.5157 0.679863 53.7981 0.359531 55.8583 0.163063C56.427 0.108832 56.7113 0.0817161 56.9321 0.17628C57.1257 0.259235 57.2866 0.405433 57.3875 0.590357C57.5026 0.801157 57.5026 1.08751 57.5026 1.66022V27.3442C57.5026 31.8392 57.5056 35.4564 57.2669 38.3785C57.0242 41.3483 56.5115 43.9582 55.2809 46.3734C53.3268 50.2086 50.2086 53.3268 46.3734 55.2809C43.9582 56.5115 41.3483 57.0242 38.3785 57.2669C35.4564 57.5056 31.8392 57.5026 27.3442 57.5026H1.55877C1.02082 57.5026 0.751849 57.5026 0.545011 57.3929C0.36608 57.298 0.216665 57.1401 0.131707 56.9563C0.0334983 56.7437 0.0479478 56.4806 0.0768469 55.9542C0.152677 54.573 0.300279 52.5455 0.563755 51.0606C0.669792 50.463 0.994143 49.9566 1.18414 49.7666C1.37415 49.5766 2.36048 49.3241 2.71337 49.3241C3.06627 49.3241 22.5979 49.3241 22.5979 49.3241C31.9529 49.3241 36.6305 49.3241 40.2036 47.5035C43.3467 45.902 45.902 43.3467 47.5035 40.2036C49.3241 36.6305 49.3241 31.9529 49.3241 22.5979C49.3241 22.5979 49.3241 3.41917 49.3241 3.06627C49.3241 2.71337 49.4137 1.88994 49.5314 1.53704Z" fill="#121212"/>
<path d="M35.5636 13.41C35.7829 3.98007 37.0056 2.31802 43.5174 2.13587C44.0312 2.12149 44.2881 2.11431 44.4951 2.21474C44.674 2.30148 44.8276 2.45088 44.9193 2.62719C45.0255 2.83133 45.0255 3.09492 45.0255 3.6221C45.0255 9.51667 45.0255 16.3362 45.0255 23.9483C45.0255 40.2396 40.2362 45.0255 23.9456 45.0255H3.62289C3.09499 45.0255 2.83104 45.0255 2.62714 44.9196C2.45076 44.828 2.30182 44.6752 2.21478 44.4966C2.11416 44.29 2.12074 44.0328 2.1339 43.5185C2.30804 36.7117 4.03144 35.965 15.8012 35.525C35.093 34.4775 34.6225 33.7605 35.5636 13.41Z" fill="#121212"/>
<path d="M70.9257 1.53704C70.808 1.18414 70.3375 0.831244 70.1022 0.741337C69.9414 0.679863 66.6589 0.359531 64.5987 0.163063C64.0301 0.108832 63.7457 0.0817161 63.525 0.17628C63.3313 0.259235 63.1705 0.405433 63.0695 0.590357C62.9544 0.801157 62.9544 1.08751 62.9544 1.66022V27.3442C62.9544 31.8392 62.9514 35.4564 63.1901 38.3785C63.4328 41.3483 63.9455 43.9582 65.1761 46.3734C67.1302 50.2086 70.2484 53.3268 74.0836 55.2809C76.4988 56.5115 79.1088 57.0242 82.0785 57.2669C85.0006 57.5056 88.6178 57.5026 93.1128 57.5026H118.898C119.436 57.5026 119.705 57.5026 119.912 57.3929C120.091 57.298 120.24 57.1401 120.325 56.9563C120.424 56.7437 120.409 56.4806 120.38 55.9542C120.304 54.573 120.157 52.5455 119.893 51.0606C119.787 50.463 119.463 49.9566 119.273 49.7666C119.083 49.5766 118.097 49.3241 117.744 49.3241C117.391 49.3241 97.8592 49.3241 97.8592 49.3241C88.5041 49.3241 83.8266 49.3241 80.2534 47.5035C77.1104 45.902 74.555 43.3467 72.9535 40.2036C71.1329 36.6305 71.1329 31.9529 71.1329 22.5979C71.1329 22.5979 71.1329 3.41917 71.1329 3.06627C71.1329 2.71337 71.0433 1.88994 70.9257 1.53704Z" fill="#121212"/>
<path d="M84.8935 13.41C84.6742 3.98007 83.4514 2.31802 76.9396 2.13587C76.4258 2.12149 76.1689 2.11431 75.9619 2.21474C75.7831 2.30148 75.6294 2.45088 75.5377 2.62719C75.4316 2.83133 75.4316 3.09492 75.4316 3.6221C75.4316 9.51667 75.4316 16.3362 75.4316 23.9483C75.4316 40.2396 80.2208 45.0255 96.5114 45.0255H116.834C117.362 45.0255 117.626 45.0255 117.83 44.9196C118.006 44.828 118.155 44.6752 118.242 44.4966C118.343 44.29 118.336 44.0328 118.323 43.5185C118.149 36.7117 116.426 35.965 104.656 35.525C85.364 34.4775 85.8345 33.7605 84.8935 13.41Z" fill="#121212"/>
<path d="M70.9257 118.92C70.808 119.273 70.3375 119.626 70.1022 119.716C69.9414 119.777 66.6589 120.097 64.5987 120.294C64.0301 120.348 63.7457 120.375 63.525 120.281C63.3313 120.198 63.1705 120.052 63.0695 119.867C62.9544 119.656 62.9544 119.37 62.9544 118.797V93.1128C62.9544 88.6178 62.9514 85.0006 63.1901 82.0785C63.4328 79.1088 63.9455 76.4988 65.1761 74.0836C67.1302 70.2484 70.2484 67.1302 74.0836 65.1761C76.4988 63.9455 79.1088 63.4328 82.0785 63.1901C85.0006 62.9514 88.6178 62.9544 93.1128 62.9544H118.898C119.436 62.9544 119.705 62.9544 119.912 63.0641C120.091 63.159 120.24 63.3169 120.325 63.5007C120.424 63.7133 120.409 63.9765 120.38 64.5028C120.304 65.884 120.157 67.9115 119.893 69.3964C119.787 69.9941 119.463 70.5004 119.273 70.6904C119.083 70.8804 118.097 71.1329 117.744 71.1329C117.391 71.1329 97.8592 71.1329 97.8592 71.1329C88.5041 71.1329 83.8266 71.1329 80.2534 72.9535C77.1104 74.555 74.555 77.1104 72.9535 80.2534C71.1329 83.8266 71.1329 88.5041 71.1329 97.8592C71.1329 97.8592 71.1329 117.038 71.1329 117.391C71.1329 117.744 71.0433 118.567 70.9257 118.92Z" fill="#121212"/>
<path d="M84.8935 107.047C84.6742 116.477 83.4514 118.139 76.9396 118.321C76.4258 118.336 76.1689 118.343 75.9619 118.242C75.7831 118.156 75.6294 118.006 75.5377 117.83C75.4316 117.626 75.4316 117.362 75.4316 116.835C75.4316 110.94 75.4316 104.121 75.4316 96.5087C75.4316 80.2175 80.2208 75.4315 96.5114 75.4315H116.834C117.362 75.4315 117.626 75.4315 117.83 75.5374C118.006 75.629 118.155 75.7818 118.242 75.9605C118.343 76.167 118.336 76.4242 118.323 76.9385C118.149 83.7453 116.426 84.492 104.656 84.932C85.364 85.9796 85.8345 86.6965 84.8935 107.047Z" fill="#121212"/>
<path d="M49.5314 118.92C49.649 119.273 50.1195 119.626 50.3548 119.716C50.5157 119.777 53.7981 120.097 55.8583 120.294C56.427 120.348 56.7113 120.375 56.9321 120.281C57.1257 120.198 57.2866 120.052 57.3875 119.867C57.5026 119.656 57.5026 119.37 57.5026 118.797V93.1128C57.5026 88.6178 57.5056 85.0006 57.2669 82.0785C57.0242 79.1088 56.5115 76.4988 55.2809 74.0836C53.3268 70.2484 50.2086 67.1302 46.3734 65.1761C43.9582 63.9455 41.3483 63.4328 38.3785 63.1901C35.4564 62.9514 31.8392 62.9544 27.3442 62.9544H1.55877C1.02082 62.9544 0.751849 62.9544 0.545011 63.0641C0.36608 63.159 0.216665 63.3169 0.131707 63.5007C0.0334983 63.7133 0.0479478 63.9765 0.0768469 64.5028C0.152677 65.884 0.300279 67.9115 0.563755 69.3964C0.669792 69.9941 0.994143 70.5004 1.18414 70.6904C1.37415 70.8804 2.36048 71.1329 2.71337 71.1329C3.06627 71.1329 22.5979 71.1329 22.5979 71.1329C31.9529 71.1329 36.6305 71.1329 40.2036 72.9535C43.3467 74.555 45.902 77.1104 47.5035 80.2534C49.3241 83.8266 49.3241 88.5041 49.3241 97.8592C49.3241 97.8592 49.3241 117.038 49.3241 117.391C49.3241 117.744 49.4137 118.567 49.5314 118.92Z" fill="#121212"/>
<path d="M35.5636 107.047C35.7829 116.477 37.0056 118.139 43.5174 118.321C44.0312 118.336 44.2881 118.343 44.4951 118.242C44.674 118.156 44.8276 118.006 44.9193 117.83C45.0255 117.626 45.0255 117.362 45.0255 116.835C45.0255 110.94 45.0255 104.121 45.0255 96.5087C45.0255 80.2175 40.2362 75.4315 23.9456 75.4315H3.62289C3.09499 75.4315 2.83104 75.4315 2.62714 75.5374C2.45076 75.629 2.30182 75.7818 2.21478 75.9605C2.11416 76.167 2.12074 76.4242 2.1339 76.9385C2.30804 83.7453 4.03144 84.492 15.8012 84.932C35.093 85.9796 34.6225 86.6965 35.5636 107.047Z" fill="#121212"/>
</svg>
